# xmcd
#
# Track frame offsets:
#	150
#	16623
#	33520
#	49230
#	69710
#	85320
#	101185
#	114180
#	132220
#	147663
#	162923
#	179063
#	194983
#	210893
#
# Disc length: 3061
#
# Revision: 2
# Processed by: cddbd v1.5.1PL0 Copyright (c) Steve Scherf et al.
# Submitted via: EasyCDDAExtractor 5.0.7
# Normalized: r1:DSETVAR1
#
DISCID=ce0bf30e
DTITLE=Various Artist - Spotlight Country Vol. 15
DYEAR=1900
DGENRE=Country
TTITLE0=Alan Jackson - Mercury Blues
TTITLE1=Billy Ray Cyrus - Somebody New
TTITLE2=Sammy Kershaw - Queen Of My Double Wide Trailer
TTITLE3=Joe Diffie - John Deere Green
TTITLE4=Tanya Tucker - Soon
TTITLE5=Doug Stone - I Never Knew Love
TTITLE6=Billy Dean - I'm Not Built That Way
TTITLE7=Radney Foster - Hammer And Nails
TTITLE8=Gibson-Miller Band - Small Price
TTITLE9=Highway 101 - You Baby You
TTITLE10=Mark Collie - Something's Gonna Change Her Mind
TTITLE11=Rodney Crowell - Even Cowgirls Get The Blues
TTITLE12=Darryl and Don Ellis - Walk On Out Of My Mind
TTITLE13=Mark Chestnutt - Almost Goodbye
EXTD=
EXTT0=
EXTT1=
EXTT2=
EXTT3=
EXTT4=
EXTT5=
EXTT6=
EXTT7=
EXTT8=
EXTT9=
EXTT10=
EXTT11=
EXTT12=
EXTT13=
PLAYORDER=
